<svg xmlns="http://www.w3.org/2000/svg" xmlns:xlink="http://www.w3.org/1999/xlink"><symbol id="icon-close" viewBox="0 0 357 357"><path d="M357 35.7L321.3 0 178.5 142.8 35.7 0 0 35.7l142.8 142.8L0 321.3 35.7 357l142.8-142.8L321.3 357l35.7-35.7-142.8-142.8z"/></symbol><symbol id="icon-coffee" viewBox="0 0 512 512"><path d="M422 210.74v-30H30v75c0 69.753 36.768 131.036 92.109 166H0v15c0 41.355 33.645 75 75 75h302c41.355 0 75-33.645 75-75v-15H329.891c13.343-8.43 25.57-18.374 36.824-30H407c57.897 0 105-47.551 105-106v-75h-90zm-2.57 241c-6.191 17.461-22.874 30-42.43 30H75c-19.556 0-36.239-12.539-42.43-30h386.86zm-193.43-30c-91.533 0-166-74.467-166-166v-45h332v45c0 91.533-74.467 166-166 166zm256-136c0 41.907-33.645 76-75 76h-16.361c20.408-31.403 31.361-67.913 31.361-106v-15h60v45zM160.07.26l-16.641 24.962c5.958 3.972 9.375 10.358 9.375 17.519 0 7.161-3.417 13.547-9.375 17.519-14.236 9.491-22.735 25.559-22.735 42.981s8.5 33.49 22.735 42.98l16.641-24.962c-5.958-3.972-9.376-10.54-9.376-18.019s3.417-14.046 9.376-18.019c14.236-9.491 22.735-25.372 22.735-42.481S174.306 9.75 160.07.26zm75 0l-16.641 24.962c5.958 3.972 9.375 10.358 9.375 17.519 0 7.161-3.417 13.547-9.375 17.519-14.236 9.491-22.735 25.559-22.735 42.981s8.5 33.49 22.735 42.98l16.641-24.962c-5.958-3.972-9.376-10.54-9.376-18.019s3.417-14.046 9.376-18.019c14.236-9.491 22.735-25.372 22.735-42.481S249.306 9.75 235.07.26zm76 0l-16.641 24.962c5.958 3.972 9.375 10.358 9.375 17.519 0 7.161-3.417 13.547-9.375 17.519-14.236 9.491-22.735 25.559-22.735 42.981s8.5 33.49 22.735 42.98l16.641-24.962c-5.958-3.972-9.376-10.54-9.376-18.019s3.417-14.046 9.376-18.019c14.236-9.491 22.735-25.372 22.735-42.481S325.306 9.75 311.07.26z"/></symbol><symbol id="icon-github" viewBox="0 0 512 512"><path d="M256 0C115.3 0 0 116.3 0 257c0 139.883 114.25 255 256 255 141.574 0 256-114.945 256-255C512 116.3 396.7 0 256 0zm45 477.5c-14.398 3-29.7 4.5-45 4.5s-30.602-1.5-45-4.5v-70.2c0-16.8 4.5-22.8 10.5-30.902 3.055-3.492 4.898-6.625 18.598-27.296L217 345.5c-59.402-8.7-82.8-39.602-92.102-63.602-12-32.097-5.699-72.3 15.903-97.796 3.3-3.903 6-10.504 3.601-17.403-4.504-13.8-3.902-35.699-.902-44.101 15.906 2.273 32.262 13.668 45.902 21.902 6.286 3.668 9.582 2.7 12.598 3 10.96-2.281 28.059-7.8 54.3-7.8 16.2 0 33.302 2.398 50.102 7.198 3.004-.07 7.832 2.485 16.2-2.398 14.257-8.687 30.058-19.691 45.898-21.902 3 8.402 3.602 30.3-.898 44.101-2.403 6.899.296 13.5 3.601 17.403 21.598 25.5 27.899 65.699 15.899 97.796-9.301 24-32.7 54.903-92.102 63.602l-23.098 3.602c14.16 21.367 15.653 23.93 18.602 27.296C296.5 384.5 301 390.5 301 407.301zm30-8.7v-61.5c0-17.1-3.602-28.5-8.402-36.902 45.601-12.296 78.004-39.3 92.402-78 15.3-40.796 8.402-89.398-17.102-123 4.504-20.097 4.504-52.199-6.296-67.199C386.8 95.602 380.199 92 371.8 92h-.301c-23.262 1.258-41.57 12.973-61.2 24.898-18-4.8-36.3-7.199-54.6-7.199-18.598 0-37.2 2.7-53.696 7.2C181.34 104.437 163.207 93.226 139.3 92c-7.5 0-14.102 3.602-18.903 10.2-10.796 15-10.796 47.1-6.296 67.198-25.504 33.602-32.403 82.5-17.102 123 14.398 38.7 46.8 65.704 92.402 78-3.722 6.512-6.668 14.915-7.828 26.286-9.21 3.175-17.199 4.21-24.629 2.027-7.836-2.316-13.941-7.547-19.246-16.469-11.914-20.015-32.207-36.355-55.312-34.23l2.636 29.883c10.7-.98 21.348 10.34 26.88 19.671 9.124 15.368 21.417 25.446 36.546 29.914 11.23 3.31 21.496 3.23 32.551.872V468.8C93.7 438.199 30 354.8 30 257 30 132.8 131.8 30 256 30s226 102.8 226 227c0 97.8-63.7 181.2-151 211.8zm0 0"/></symbol><symbol id="icon-instagram" viewBox="0 0 512 512"><path d="M75 512h362c41.355 0 75-33.645 75-75V75c0-41.355-33.645-75-75-75H75C33.645 0 0 33.645 0 75v362c0 41.355 33.645 75 75 75zM30 75c0-24.813 20.188-45 45-45h362c24.813 0 45 20.188 45 45v362c0 24.813-20.188 45-45 45H75c-24.813 0-45-20.188-45-45zm0 0"/><path d="M256 391c74.438 0 135-60.563 135-135s-60.563-135-135-135-135 60.563-135 135 60.563 135 135 135zm0-240c57.898 0 105 47.102 105 105s-47.102 105-105 105-105-47.102-105-105 47.102-105 105-105zm150 0c24.813 0 45-20.188 45-45s-20.188-45-45-45-45 20.188-45 45 20.188 45 45 45zm0-60c8.27 0 15 6.73 15 15s-6.73 15-15 15-15-6.73-15-15 6.73-15 15-15zm0 0"/></symbol><symbol id="icon-telegram" viewBox="1 -35 512 511"><path d="M121.453 253.172l63.555 158.887 82.75-82.754 141.535 112.504L512 .5 0 205.98zm-39.933-47.64l244.046-97.946-194.074 117.363zm287.535-89.25l-161.98 148.187-19.485 73.426-36.035-90.086zm-149.852 219.23l9.817-36.996 15.144 12.035zm171.656 53.394L243.473 271.754 465.375 68.746zm0 0"/></symbol><symbol id="icon-show" viewBox="0 0 512 512"><path d="M135 308.5h377v-105H135zm30-75h317v45H165zm-112.5-30C23.551 203.5 0 227.051 0 256s23.551 52.5 52.5 52.5S105 284.949 105 256s-23.551-52.5-52.5-52.5zm0 75C40.093 278.5 30 268.407 30 256s10.093-22.5 22.5-22.5S75 243.593 75 256s-10.093 22.5-22.5 22.5zm82.5 165h377v-105H135zm30-75h317v45H165zm-112.5-30C23.551 338.5 0 362.051 0 391s23.551 52.5 52.5 52.5S105 419.949 105 391s-23.551-52.5-52.5-52.5zm0 75C40.093 413.5 30 403.407 30 391s10.093-22.5 22.5-22.5S75 378.593 75 391s-10.093 22.5-22.5 22.5zm82.5-345v105h377v-105zm347 75H165v-45h317zm-429.5-75C23.551 68.5 0 92.051 0 121s23.551 52.5 52.5 52.5S105 149.949 105 121 81.449 68.5 52.5 68.5zm0 75C40.093 143.5 30 133.407 30 121s10.093-22.5 22.5-22.5S75 108.593 75 121s-10.093 22.5-22.5 22.5z"/></symbol><symbol id="icon-close" viewBox="0 0 386.667 386.667"><path d="m386.667 45.564-45.564-45.564-147.77 147.769-147.769-147.769-45.564 45.564 147.769 147.769-147.769 147.77 45.564 45.564 147.769-147.769 147.769 147.769 45.564-45.564-147.768-147.77z"/></symbol><symbol id="icon-warning" viewBox="0 0 458.096 458.096"><path d="M454.106,396.635L247.33,38.496c-3.783-6.555-10.775-10.592-18.344-10.592c-7.566,0-14.561,4.037-18.344,10.592 L2.837,398.414c-3.783,6.555-3.783,14.629,0,21.184c3.783,6.556,10.778,10.593,18.344,10.593h415.613c0.041,0,0.088,0.006,0.118,0c11.709,0,21.184-9.481,21.184-21.185C458.096,404.384,456.612,400.116,454.106,396.635z M57.872,387.822L228.986,91.456 L400.1,387.828H57.872V387.822z M218.054,163.009h21.982c1.803,0,3.534,0.727,4.8,2.021c1.259,1.3,1.938,3.044,1.892,4.855l-4.416,138.673c-0.095,3.641-3.073,6.537-6.703,6.537h-13.125c-3.635,0-6.614-2.902-6.7-6.537l-4.418-138.673c-0.047-1.812,0.636-3.555,1.895-4.855C214.52,163.736,216.251,163.009,218.054,163.009z M246.449,333.502v25.104c0,3.699-2.997,6.696-6.703,6.696h-21.394c-3.706,0-6.7-2.997-6.7-6.696v-25.104c0-3.7,2.994-6.703,6.7-6.703h21.394C243.452,326.793,246.449,329.802,246.449,333.502z"/></symbol><symbol id="icon-back" viewBox="0 0 492 492"><path d="M198.608,246.104L382.664,62.04c5.068-5.056,7.856-11.816,7.856-19.024c0-7.212-2.788-13.968-7.856-19.032l-16.128-16.12 C361.476,2.792,354.712,0,347.504,0s-13.964,2.792-19.028,7.864L109.328,227.008c-5.084,5.08-7.868,11.868-7.848,19.084c-0.02,7.248,2.76,14.028,7.848,19.112l218.944,218.932c5.064,5.072,11.82,7.864,19.032,7.864c7.208,0,13.964-2.792,19.032-7.864l16.124-16.12c10.492-10.492,10.492-27.572,0-38.06L198.608,246.104z"/></symbol><symbol id="icon-date" viewBox="0 0 512.001 512.001"><path d="m15.001 421h75v45c0 8.284 6.716 15 15 15h392c8.284 0 15-6.716 15-15v-390c0-8.284-6.716-15-15-15h-75v-15c0-8.284-6.716-15-15-15s-15 6.716-15 15v15h-76v-15c0-8.284-6.716-15-15-15s-15 6.716-15 15v15h-75v-15c0-8.284-6.716-15-15-15s-15 6.716-15 15v15h-76c-8.284 0-15 6.716-15 15v90c0 110.55-45.945 195.596-84.603 228.477-4.852 4.043-6.651 10.691-4.502 16.63 2.151 5.938 7.789 9.893 14.105 9.893zm467 30h-362v-30h287c3.509 0 6.907-1.23 9.603-3.477 18.032-15.019 45.963-50.777 65.397-96.575zm-362-360h61v15c0 8.284 6.716 15 15 15s15-6.716 15-15v-15h75v15c0 8.284 6.716 15 15 15s15-6.716 15-15v-15h76v15c0 8.284 6.716 15 15 15s15-6.716 15-15v-15h60v60h-362zm-.257 89.99h361.991c-3.38 95.155-39.901 170.023-80.616 210.01h-351.999c46.133-58.781 68.149-135.318 70.624-210.01z"/></symbol></svg>
